<?xml version="1.0" standalone="no"?>
<!DOCTYPE svg PUBLIC "-//W3C//DTD SVG 20010904//EN"
 "http://www.w3.org/TR/2001/REC-SVG-20010904/DTD/svg10.dtd">
<svg version="1.0" xmlns="http://www.w3.org/2000/svg"
 width="114.000000pt" height="114.000000pt" viewBox="0 0 114.000000 114.000000"
 preserveAspectRatio="xMidYMid meet">
<metadata>
Created by potrace 1.14, written by Peter Selinger 2001-2017
</metadata>
<g transform="translate(0.000000,114.000000) scale(0.100000,-0.100000)"
fill="#000000" stroke="none">
<path d="M445 1123 c-160 -37 -308 -153 -379 -297 -20 -41 -39 -83 -41 -95 -3
-12 -8 -31 -11 -43 -12 -49 -11 -184 2 -242 61 -266 309 -457 576 -442 136 8
200 29 305 103 79 55 135 120 178 208 184 370 -74 806 -485 819 -48 2 -111 -3
-145 -11z"/>
</g>
</svg>
